<?xml version="1.0" encoding="UTF-8"?>
<!DOCTYPE svg PUBLIC "-//W3C//DTD SVG 1.1//EN" "http://www.w3.org/Graphics/SVG/1.1/DTD/svg11.dtd">
<!-- Creator: CorelDRAW -->
<svg xmlns="http://www.w3.org/2000/svg" xml:space="preserve" width="133.616mm" height="26.5755mm" version="1.1" style="shape-rendering:geometricPrecision; text-rendering:geometricPrecision; image-rendering:optimizeQuality; fill-rule:evenodd; clip-rule:evenodd"
viewBox="0 0 6541.59 1301.09"
 xmlns:xlink="http://www.w3.org/1999/xlink"
 xmlns:xodm="http://www.corel.com/coreldraw/odm/2003">
 <defs>
  <style type="text/css">
   <![CDATA[
    .fil1 {fill:none}
    .fil0 {fill:white}
   ]]>
  </style>
   <clipPath id="id0">
    <path d="M-0 1301.09l6541.59 0 0 -1301.09 -6541.59 0 0 1301.09z"/>
   </clipPath>
 </defs>
 <g id="Layer_x0020_1">
  <metadata id="CorelCorpID_0Corel-Layer"/>
  <g>
  </g>
  <g style="clip-path:url(#id0)">
   <g>
    <path class="fil0" d="M-0 1277.96c11.47,-134.95 18.99,-241.04 22.9,-318.23 5.3,-105.46 10.62,-250.16 15.93,-433.74 5.01,-183.91 7.8,-313.86 7.8,-389.16 0,-26.99 -0.25,-64.97 -0.83,-113.93 72.61,1.88 130.15,2.82 172.58,2.82 59.49,0 128.76,-1.57 207.8,-4.08 79.03,-2.82 146.89,-4.38 203.85,-4.38 68.16,0 116.75,2.2 145.51,6.58 38.25,5.35 71.5,15.39 100.28,29.51 28.45,14.12 52.48,31.39 71.49,52.42 21.2,24.47 37.97,53.98 49.99,88.18 13.67,39.23 20.39,81.29 20.39,125.87 0,35.15 -3.93,68.42 -11.74,100.42 -8.11,31.7 -19.26,59.94 -33.52,85.05 -14.51,24.8 -30.7,45.51 -48.87,61.82 -17.87,16.64 -35.46,29.51 -52.78,38.62 -17.03,9.4 -40.21,18.52 -68.97,27.6 28.75,5.64 51.94,11.92 69.52,18.83 17.35,7.23 36.04,18.51 55.88,34.22 20.11,15.68 37.97,35.76 53.61,60.23 15.91,24.49 27.95,51.79 35.74,82.24 7.81,30.43 11.74,62.46 11.74,96.02 0,46.46 -6.69,90.4 -20.38,131.51 -4.06,12.2 -8.59,23.88 -13.6,35.04 -544.65,5.01 -984.61,56.62 -994.23,186.53l-0.08 0zm405.9 -0.06l-31.94 0.06 -12.73 -0.06 44.67 0zm-41.16 -765.71l116.17 0c38.26,0 65.35,-1.27 81.56,-3.47 15.91,-2.2 31.82,-5.96 46.9,-11.29 15.36,-5.64 28.5,-14.75 39.66,-27.62 11.18,-12.88 19.26,-27.31 23.75,-43.31 4.73,-16 6.97,-31.71 6.97,-47.7 0,-22.91 -4.73,-42.99 -14.23,-60.89 -9.5,-17.56 -24.88,-30.76 -46.37,-39.53 -21.24,-8.47 -53.61,-12.87 -97.18,-12.87l-147.46 0 -9.78 246.69zm-18.72 513.76l156.96 0c41.6,0 72.06,-2.83 91.87,-8.16 24.02,-6.91 42.17,-15.71 54.74,-26.7 12.59,-10.98 22.34,-26.05 29.89,-45.2 7.26,-18.82 10.88,-40.16 10.88,-63.39 0,-20.08 -2.77,-37.98 -8.93,-53.34 -5.87,-15.39 -15.08,-28.26 -27.09,-38.62 -12.01,-10.36 -26.54,-17.88 -44.12,-22.6 -17.32,-4.39 -44.68,-6.59 -81.83,-6.59l-172.58 0 -9.8 264.59zm876.37 -803.46c3.36,-73.11 4.75,-130.54 4.75,-172.92 0,-12.23 -0.28,-28.87 -0.86,-49.58 66.21,1.24 121.5,1.88 166.17,1.88 61.72,0 115.64,-0.63 161.99,-1.88 -1.68,18.83 -2.79,34.83 -3.07,47.7l-5.02 113.93c-1.13,17.27 -1.69,37.35 -1.69,60.87 -53.89,-1.25 -105.84,-1.88 -155.55,-1.88 -51.09,0 -106.67,0.64 -166.72,1.88zm-51.66 1055.46l0.02 -0.18 10.98 0 -11 0.18zm17.42 -186.43c3.6,-48.08 7.46,-109.41 10.76,-184.22 3.65,-75.33 6.73,-158.8 9.5,-250.13 2.82,-91.33 5.03,-197.1 6.43,-317.93 70.94,1.27 127.62,1.88 170.36,1.88 38.53,0 94.38,-0.62 166.72,-1.88 -9.2,115.81 -15.93,217.5 -19.81,305.06 -4.2,87.87 -6.73,180.78 -7.84,278.68 -0.86,67.07 -1.56,125.83 -2.08,176.32 -112.31,-4.06 -224.4,-6.73 -334.05,-7.78zm332.78 186.19l0 0.24 -12.88 -0.24 12.88 0zm168.68 0.24l0.03 -0.25 15.31 0 -15.34 0.25zm18.73 -170.66l1.65 -15.13 50.54 -644.64 25.39 -424.63c100.56,1.25 179.31,1.88 236.57,1.88 47.46,0 120.09,-0.63 217.55,-1.88 7.26,52.71 13.14,92.58 18.15,119.89 4.77,27.3 17.04,80.65 36.34,160.06 19.26,79.39 34.89,148.12 46.6,205.86 11.74,58.06 29.34,157.23 52.81,297.54 24.02,-96.36 45.8,-178.9 65.35,-248.25 19.81,-69.37 44.39,-148.14 73.72,-236.33 29.6,-88.2 48.04,-145.94 56.15,-173.25 7.82,-27.31 18.7,-69.03 32.39,-125.53 81.55,1.25 161.96,1.88 240.46,1.88 53.34,0 127.63,-0.63 222.57,-1.88 -10.32,206.5 -17.31,384.14 -20.67,532.27 -6.98,290.63 -10.6,490.54 -10.6,599.45 0,22.89 0.57,64.03 1.68,123.34l-27.84 -0.47 27.41 0c-48.98,-24.81 -155.74,-49.73 -301.1,-72.9 3.44,-70.64 7.5,-177.42 11.91,-320.5 6.73,-207.77 9.78,-340.22 9.78,-397.64 0,-25.43 -0.56,-60.26 -1.67,-104.81l-106.96 374.09 -123.65 419.7c-109.62,-13.31 -231.12,-25.64 -359.84,-36.52l-73.09 -366.55 -58.65 -269.59c-2.23,-10.36 -4.77,-23.23 -7.53,-38.6 -2.82,-15.38 -7.01,-42.38 -13.15,-80.97l-20.38 254.84 -25.18 485.68c-90.46,-6.28 -183.16,-11.78 -276.69,-16.41zm1062.92 170.22l-22.09 0.44 0.03 -0.44 22.06 0zm-258.51 0.04l-0.13 0.4 -22.02 -0.4 22.15 0zm-282.33 0.05l-19.69 0.35 -0.07 -0.33 19.75 -0.02zm-249.53 0.04l0 0.31 -18.74 -0.29 18.74 -0.02z"/>
    <path class="fil0" d="M0.08 1297.77l3054.46 -0.48c-315.78,-159.96 -3030.41,-324.39 -3054.46,0.48z"/>
    <path class="fil0" d="M6501.67 1281.01c-32.41,-1.24 -54.74,-1.88 -67.31,-1.88 -13.67,0 -37.13,0.63 -71.21,1.88l10.06 -198.66c-17.59,34.51 -32.7,60.89 -45.24,79.7 -12.29,18.52 -27.37,36.1 -44.41,52.73 -17.32,16.64 -37.14,31.39 -59.75,44.57 -22.64,13.18 -47.76,23.54 -75.7,30.77 -27.92,7.52 -57.24,10.97 -88.25,10.97 -53.07,0 -102.5,-10.68 -148.57,-32 -46.09,-21.34 -85.18,-52.1 -117.57,-91.96 -32.13,-39.86 -55.3,-86.3 -69.53,-139.36 -13.98,-53.03 -21.23,-108.25 -21.23,-166 0,-77.21 13.39,-153.18 40.21,-227.85 26.53,-75.02 64.5,-136.54 113.1,-185.49 48.86,-48.64 104.18,-82.54 165.89,-101.37 61.45,-19.15 127.08,-28.56 196.35,-28.56 48.01,0 104.99,5.96 170.9,18.2 2.79,-66.54 4.19,-122.08 4.19,-166.34 0,-63.71 -0.27,-115.17 -0.85,-154.4l74.29 0.93c18.73,0 43.56,-0.3 74.55,-0.93l-23.73 518.47 -16.19 594.1 0 142.48 0 0zm-405.08 -760.48c34.67,0 67.6,5.5 99.06,16.71 31.26,11.01 58.46,28.69 81.26,52.8 23,24.12 40.41,54.51 52.43,91.33 11.82,36.67 17.73,75.42 17.73,116.26 0,44.05 -6.43,86.4 -19.1,126.86 -12.69,40.44 -30.42,74.63 -53.39,102.91 -23.01,28.13 -51.05,48.84 -84.16,61.92 -33.15,13.29 -68.8,19.74 -106.81,19.74 -35.33,0 -68.61,-5.87 -99.87,-17.66 -31.45,-11.96 -58.64,-30.38 -81.47,-55.64 -22.97,-25.25 -40.4,-56.21 -52.22,-92.66 -12.01,-36.46 -17.93,-74.84 -17.93,-114.92 0,-60.37 11,-114.89 32.8,-163.33 21.64,-48.42 53.76,-84.5 95.99,-108.44 42.27,-23.92 87.37,-35.88 135.69,-35.88l0 0z"/>
    <path class="fil0" d="M5139.09 1281.01c19.81,-353.7 29.61,-635.84 29.61,-846.74l-0.83 -84.74c27.65,0.62 50.52,0.94 68.68,0.94 20.68,0 43.87,-0.32 69.56,-0.94l-6.73 152.84c20.41,-38.3 38.28,-66.85 53.63,-86 15.66,-19.44 33.24,-35.45 52.79,-48 19.83,-12.56 41.89,-22.3 66.73,-29.19 24.89,-7.23 50.56,-10.67 77.36,-10.67 22.9,0 45.54,3.13 67.89,9.09 0.53,40.5 2.49,86 5.83,136.22 -33.78,-10.35 -64.22,-15.7 -91.01,-15.7 -32.12,0 -60.9,5.96 -86.59,17.9 -25.69,11.92 -48.59,30.12 -69.27,54.28 -20.39,24.18 -37.15,53.05 -50.25,86.93 -10.9,26.99 -19.27,61.84 -24.86,104.83 -5.88,42.68 -10.33,120.82 -13.7,234.45 -1.93,82.53 -3.06,170.4 -3.06,263l0 61.5c-29.6,-1.24 -53.34,-1.88 -71.21,-1.88 -16.49,0 -41.35,0.63 -74.57,1.88l0 0z"/>
    <path class="fil0" d="M4567.41 328.52c57.24,0 111.7,9.07 163.67,27.58 51.64,18.24 96.62,47.41 134.33,87.27 37.96,39.84 66.75,90.06 86.56,150.93 19.53,60.6 29.34,124.62 29.34,192.09 0,72.83 -10.63,142.82 -31.53,209.63 -20.98,66.88 -50.3,123.36 -88.26,170.1 -38,46.46 -84.37,80.68 -139.12,102.3 -54.72,22.01 -113.62,32.63 -176.47,32.63 -58.41,0 -113.41,-9.67 -165.06,-29.16 -51.95,-19.76 -96.9,-50.2 -134.62,-91.94 -37.94,-41.77 -66.73,-92.9 -86.26,-153.16 -19.86,-60.27 -29.66,-123.67 -29.66,-189.87 0,-99.81 18.17,-189.88 54.2,-269.91 35.78,-80.05 88.84,-139.65 158.64,-179.2 69.82,-39.54 144.36,-59.31 224.25,-59.31l0 0zm-3.62 152.38c39.3,0 76.69,6.24 112.39,18.96 35.47,12.49 66.33,32.55 92.19,59.9 26.08,27.39 45.82,61.86 59.49,103.67 13.39,41.59 20.11,85.51 20.11,131.86 0,50 -7.31,98.07 -21.68,143.94 -14.4,45.92 -34.51,84.72 -60.58,116.8 -26.09,31.93 -57.93,55.41 -95.49,70.26 -37.59,15.07 -78.07,22.39 -121.22,22.39 -40.06,0 -77.84,-6.65 -113.3,-20.02 -35.69,-13.59 -66.55,-34.49 -92.43,-63.15 -26.07,-28.67 -45.87,-63.76 -59.25,-105.16 -13.63,-41.38 -20.34,-84.91 -20.34,-130.37 0,-68.5 12.45,-130.39 37.23,-185.32 24.52,-54.96 60.99,-95.89 108.91,-123.06 47.93,-27.15 99.13,-40.71 153.98,-40.71l0 -0z"/>
    <path class="fil0" d="M3280.51 1281.01l10.61 -168.23c1.95,-37.96 3.92,-79.39 5.58,-124.28l18.16 -547.03 4.75 -220.63c1.11,-46.46 1.68,-87.25 1.68,-122.4l0 -72.5c129.29,0.63 251.35,0.93 366.39,0.93l202.18 -0.93 121.22 0c-4.47,56.49 -6.7,98.86 -6.7,127.73 -69.26,-4.71 -166.72,-7.21 -292.98,-7.21l-240.44 1.88 -12.29 433.72 157.24 3.78c148.29,0 256.08,-1.27 323.11,-3.78 -3.35,45.51 -5.02,87.57 -5.02,126.17 -100.82,-2.5 -186,-3.76 -255.25,-3.76 -68.14,0 -143.55,1.26 -226.49,3.76 -6.16,225.67 -8.94,416.46 -8.94,572.77l-79.61 -1.88c-3.05,0 -30.99,0.63 -83.22,1.88l0 0z"/>
   </g>
  </g>
  <polygon class="fil1" points="-0,1301.09 6541.59,1301.09 6541.59,0 -0,0 "/>
 </g>
</svg>
