<?xml version="1.0" encoding="UTF-8"?>
<!DOCTYPE svg PUBLIC "-//W3C//DTD SVG 1.1//EN" "http://www.w3.org/Graphics/SVG/1.1/DTD/svg11.dtd">
<!-- Creator: CorelDRAW -->
<svg xmlns="http://www.w3.org/2000/svg" xml:space="preserve" width="133.709mm" height="26.5941mm" version="1.1" style="shape-rendering:geometricPrecision; text-rendering:geometricPrecision; image-rendering:optimizeQuality; fill-rule:evenodd; clip-rule:evenodd"
viewBox="0 0 6533.64 1299.51"
 xmlns:xlink="http://www.w3.org/1999/xlink"
 xmlns:xodm="http://www.corel.com/coreldraw/odm/2003">
 <defs>
  <style type="text/css">
   <![CDATA[
    .fil2 {fill:none}
    .fil0 {fill:#1E88E5}
    .fil1 {fill:#2A3043}
   ]]>
  </style>
   <clipPath id="id0">
    <path d="M-0 1299.51l6533.64 0 0 -1299.51 -6533.64 0 0 1299.51z"/>
   </clipPath>
 </defs>
 <g id="Layer_x0020_1">
  <metadata id="CorelCorpID_0Corel-Layer"/>
  <g>
  </g>
  <g style="clip-path:url(#id0)">
   <g>
    <path class="fil0" d="M-0 1276.42c11.45,-134.79 18.96,-240.75 22.87,-317.85 5.3,-105.32 10.61,-249.85 15.92,-433.21 5,-183.69 7.79,-313.47 7.79,-388.69 0,-26.96 -0.26,-64.9 -0.83,-113.79 72.53,1.88 129.99,2.81 172.37,2.81 59.41,0 128.6,-1.56 207.55,-4.08 78.93,-2.81 146.71,-4.37 203.6,-4.37 68.08,0 116.61,2.2 145.33,6.57 38.2,5.34 71.42,15.37 100.16,29.47 28.42,14.1 52.42,31.35 71.4,52.35 21.18,24.45 37.93,53.92 49.93,88.07 13.65,39.18 20.36,81.19 20.36,125.71 0,35.1 -3.92,68.34 -11.72,100.3 -8.1,31.66 -19.23,59.87 -33.48,84.95 -14.49,24.76 -30.66,45.45 -48.81,61.75 -17.85,16.61 -35.42,29.47 -52.72,38.57 -17.01,9.4 -40.17,18.5 -68.89,27.57 28.72,5.64 51.88,11.91 69.44,18.81 17.32,7.22 36,18.49 55.8,34.18 20.08,15.66 37.93,35.72 53.55,60.16 15.9,24.46 27.92,51.72 35.71,82.14 7.8,30.39 11.72,62.38 11.72,95.9 0,46.41 -6.68,90.29 -20.36,131.35 -4.06,12.19 -8.58,23.86 -13.58,35.01 -544,5 -983.41,56.55 -993.02,186.3l-0.09 0zm405.41 -0.06l-31.9 0.06 -12.71 -0.06 44.61 0zm-41.11 -764.78l116.03 0c38.21,0 65.27,-1.27 81.46,-3.46 15.89,-2.2 31.78,-5.96 46.84,-11.28 15.34,-5.63 28.46,-14.73 39.61,-27.59 11.17,-12.86 19.23,-27.28 23.72,-43.26 4.73,-15.98 6.96,-31.66 6.96,-47.65 0,-22.88 -4.73,-42.94 -14.21,-60.82 -9.49,-17.54 -24.85,-30.72 -46.31,-39.48 -21.21,-8.46 -53.55,-12.86 -97.06,-12.86l-147.28 0 -9.76 246.39zm-18.7 513.14l156.77 0c41.55,0 71.97,-2.83 91.76,-8.15 24,-6.9 42.13,-15.68 54.68,-26.66 12.57,-10.96 22.32,-26.01 29.85,-45.14 7.26,-18.8 10.87,-40.11 10.87,-63.31 0,-20.06 -2.77,-37.93 -8.91,-53.28 -5.87,-15.37 -15.06,-28.22 -27.06,-38.57 -12,-10.35 -26.5,-17.86 -44.06,-22.57 -17.3,-4.39 -44.63,-6.59 -81.74,-6.59l-172.37 0 -9.78 264.27zm875.31 -802.48c3.36,-73.02 4.74,-130.38 4.74,-172.71 0,-12.22 -0.28,-28.84 -0.86,-49.52 66.13,1.24 121.36,1.88 165.97,1.88 61.65,0 115.5,-0.64 161.79,-1.88 -1.67,18.81 -2.78,34.79 -3.06,47.64l-5.02 113.79c-1.13,17.25 -1.68,37.3 -1.68,60.8 -53.82,-1.25 -105.72,-1.88 -155.37,-1.88 -51.03,0 -106.54,0.63 -166.51,1.88zm-51.6 1054.18l0.02 -0.18 10.97 0 -10.99 0.18zm17.4 -186.2c3.6,-48.02 7.45,-109.28 10.75,-184 3.65,-75.24 6.72,-158.61 9.48,-249.83 2.81,-91.22 5.02,-196.86 6.43,-317.54 70.85,1.27 127.47,1.88 170.16,1.88 38.49,0 94.27,-0.62 166.52,-1.88 -9.19,115.66 -15.91,217.23 -19.79,304.69 -4.19,87.76 -6.72,180.56 -7.83,278.34 -0.86,66.99 -1.56,125.68 -2.08,176.11 -112.17,-4.06 -224.13,-6.72 -333.64,-7.77zm332.38 185.96l0 0.24 -12.87 -0.24 12.87 0zm168.47 0.24l0.03 -0.26 15.29 0 -15.32 0.26zm18.71 -170.45l1.66 -15.11 50.48 -643.86 25.37 -424.11c100.43,1.24 179.09,1.88 236.28,1.88 47.4,0 119.95,-0.64 217.28,-1.88 7.25,52.65 13.12,92.46 18.12,119.74 4.76,27.27 17.02,80.56 36.3,159.87 19.23,79.29 34.85,147.94 46.54,205.62 11.72,57.99 29.3,157.04 52.74,297.18 23.99,-96.24 45.74,-178.68 65.27,-247.94 19.79,-69.29 44.34,-147.97 73.63,-236.04 29.57,-88.09 47.98,-145.77 56.08,-173.04 7.81,-27.28 18.68,-68.95 32.34,-125.38 81.45,1.25 161.77,1.88 240.17,1.88 53.27,0 127.47,-0.64 222.3,-1.88 -10.3,206.25 -17.29,383.67 -20.64,531.63 -6.97,290.27 -10.59,489.94 -10.59,598.71 0,22.86 0.58,63.95 1.68,123.19l-27.81 -0.48 27.38 0c-48.93,-24.78 -155.55,-49.66 -300.74,-72.81 3.44,-70.55 7.49,-177.21 11.9,-320.11 6.72,-207.52 9.76,-339.8 9.76,-397.16 0,-25.39 -0.55,-60.19 -1.66,-104.68l-106.83 373.64 -123.51 419.19c-109.49,-13.3 -230.84,-25.61 -359.4,-36.47l-73 -366.1 -58.57 -269.26c-2.23,-10.34 -4.76,-23.2 -7.53,-38.55 -2.81,-15.37 -7,-42.33 -13.13,-80.88l-20.35 254.53 -25.15 485.09c-90.35,-6.27 -182.94,-11.77 -276.36,-16.39zm1061.63 170.01l-22.06 0.44 0.03 -0.44 22.03 0zm-258.2 0.04l-0.13 0.4 -21.99 -0.4 22.12 0zm-281.98 0.05l-19.66 0.35 -0.06 -0.34 19.73 -0.01zm-249.22 0.04l0 0.31 -18.72 -0.3 18.72 -0.01z"/>
    <path class="fil1" d="M0.08 1296.2l3050.75 -0.48c-315.4,-159.77 -3026.73,-323.99 -3050.75,0.48z"/>
    <path class="fil1" d="M6419.61 1279.46c-32.37,-1.24 -54.67,-1.87 -67.22,-1.87 -13.65,0 -37.08,0.63 -71.12,1.87l10.04 -198.42c-17.57,34.47 -32.66,60.82 -45.19,79.61 -12.27,18.5 -27.33,36.05 -44.36,52.67 -17.3,16.62 -37.1,31.35 -59.67,44.51 -22.62,13.16 -47.7,23.51 -75.61,30.73 -27.89,7.51 -57.17,10.96 -88.14,10.96 -53,0 -102.38,-10.66 -148.4,-31.97 -46.04,-21.31 -85.07,-52.03 -117.43,-91.85 -32.09,-39.81 -55.23,-86.19 -69.44,-139.19 -13.96,-52.96 -21.21,-108.12 -21.21,-165.8 0,-77.11 13.38,-152.99 40.17,-227.57 26.5,-74.92 64.42,-136.37 112.97,-185.27 48.8,-48.57 104.05,-82.43 165.69,-101.25 61.38,-19.13 126.93,-28.52 196.11,-28.52 47.95,0 104.86,5.96 170.68,18.18 2.79,-66.46 4.19,-121.93 4.19,-166.14 0,-63.63 -0.28,-115.03 -0.85,-154.21l74.2 0.93c18.71,0 43.51,-0.3 74.46,-0.93l-23.69 517.84 -16.17 593.38 0 142.3 0 0zm-404.59 -759.55c34.63,0 67.52,5.5 98.94,16.69 31.22,10.99 58.38,28.66 81.16,52.73 22.97,24.09 40.37,54.45 52.36,91.22 11.81,36.63 17.71,75.32 17.71,116.12 0,43.99 -6.43,86.29 -19.08,126.71 -12.68,40.39 -30.38,74.54 -53.33,102.79 -22.98,28.09 -50.99,48.77 -84.06,61.84 -33.11,13.28 -68.71,19.72 -106.68,19.72 -35.29,0 -68.53,-5.87 -99.75,-17.65 -31.41,-11.94 -58.56,-30.34 -81.37,-55.57 -22.93,-25.22 -40.35,-56.14 -52.15,-92.54 -12.01,-36.42 -17.91,-74.75 -17.91,-114.78 0,-60.3 10.98,-114.75 32.75,-163.13 21.61,-48.36 53.69,-84.4 95.88,-108.31 42.22,-23.89 87.26,-35.84 135.52,-35.84l0 0z"/>
    <path class="fil1" d="M5058.69 1279.46c19.79,-353.27 29.57,-635.07 29.57,-845.71l-0.83 -84.63c27.62,0.62 50.47,0.93 68.6,0.93 20.65,0 43.82,-0.32 69.48,-0.93l-6.72 152.65c20.38,-38.25 38.23,-66.77 53.57,-85.9 15.64,-19.42 33.19,-35.41 52.73,-47.95 19.8,-12.54 41.84,-22.27 66.65,-29.15 24.86,-7.22 50.51,-10.66 77.27,-10.66 22.86,0 45.48,3.13 67.8,9.08 0.53,40.45 2.49,85.89 5.82,136.05 -33.74,-10.34 -64.14,-15.69 -90.9,-15.69 -32.09,0 -60.83,5.96 -86.49,17.88 -25.66,11.91 -48.54,30.09 -69.18,54.22 -20.36,24.15 -37.11,52.98 -50.19,86.83 -10.89,26.96 -19.25,61.76 -24.83,104.71 -5.87,42.62 -10.32,120.67 -13.69,234.16 -1.93,82.43 -3.06,170.19 -3.06,262.68l0 61.43c-29.57,-1.24 -53.27,-1.87 -71.12,-1.87 -16.47,0 -41.3,0.63 -74.48,1.87l0 0z"/>
    <path class="fil1" d="M4487.7 328.13c57.17,0 111.57,9.06 163.47,27.55 51.58,18.22 96.5,47.35 134.16,87.16 37.91,39.8 66.67,89.95 86.46,150.75 19.51,60.52 29.3,124.46 29.3,191.86 0,72.74 -10.62,142.64 -31.5,209.38 -20.95,66.79 -50.24,123.22 -88.15,169.89 -37.96,46.41 -84.28,80.58 -138.95,102.18 -54.66,21.98 -113.48,32.59 -176.26,32.59 -58.33,0 -113.27,-9.67 -164.86,-29.13 -51.88,-19.74 -96.78,-50.14 -134.45,-91.83 -37.89,-41.72 -66.65,-92.79 -86.16,-152.97 -19.84,-60.19 -29.62,-123.53 -29.62,-189.64 0,-99.68 18.15,-189.65 54.13,-269.58 35.73,-79.95 88.73,-139.48 158.45,-178.98 69.73,-39.5 144.18,-59.23 223.98,-59.23l0 0zm-3.62 152.19c39.26,0 76.6,6.23 112.26,18.93 35.42,12.48 66.26,32.51 92.08,59.83 26.05,27.35 45.77,61.79 59.42,103.54 13.37,41.54 20.08,85.41 20.08,131.71 0,49.94 -7.3,97.95 -21.65,143.77 -14.39,45.86 -34.47,84.62 -60.5,116.65 -26.06,31.88 -57.86,55.34 -95.37,70.18 -37.54,15.06 -77.98,22.37 -121.08,22.37 -40.01,0 -77.74,-6.65 -113.16,-20 -35.65,-13.57 -66.48,-34.44 -92.32,-63.07 -26.03,-28.64 -45.82,-63.69 -59.18,-105.03 -13.61,-41.33 -20.32,-84.81 -20.32,-130.21 0,-68.42 12.43,-130.23 37.19,-185.09 24.49,-54.89 60.92,-95.77 108.78,-122.9 47.87,-27.12 99.01,-40.67 153.79,-40.67l0 -0z"/>
    <path class="fil1" d="M3202.37 1279.46l10.59 -168.02c1.95,-37.91 3.91,-79.29 5.58,-124.12l18.14 -546.37 4.74 -220.36c1.11,-46.4 1.68,-87.15 1.68,-122.25l0 -72.41c129.13,0.63 251.04,0.93 365.95,0.93l201.93 -0.93 121.08 0c-4.47,56.42 -6.69,98.74 -6.69,127.57 -69.17,-4.71 -166.52,-7.2 -292.62,-7.2l-240.15 1.88 -12.28 433.19 157.06 3.78c148.11,0 255.76,-1.27 322.72,-3.78 -3.35,45.45 -5.02,87.46 -5.02,126.02 -100.7,-2.5 -185.77,-3.76 -254.94,-3.76 -68.06,0 -143.37,1.26 -226.21,3.76 -6.15,225.39 -8.94,415.96 -8.94,572.07l-79.51 -1.87c-3.04,0 -30.95,0.63 -83.11,1.87l0 0z"/>
   </g>
  </g>
  <polygon class="fil2" points="-0,1299.51 6533.64,1299.51 6533.64,0 -0,0 "/>
 </g>
</svg>
